<?xml version="1.0" encoding="utf-8"?>
<!-- Generator: Adobe Illustrator 18.1.1, SVG Export Plug-In . SVG Version: 6.00 Build 0)  -->
<svg version="1.1" id="mountains" xmlns="http://www.w3.org/2000/svg" xmlns:xlink="http://www.w3.org/1999/xlink" x="0px" y="0px"
	 viewBox="0 0 600 300" style="enable-background:new 0 0 600 300;" xml:space="preserve">
<style type="text/css">
	.st0{display:none;fill:url(#_x30__1_);}
	.st1{display:none;fill:url(#_x31__1_);}
	.st2{display:none;fill:url(#_x32__1_);}
	.st3{display:none;fill:url(#_x33__1_);}
	.st4{display:none;fill:url(#_x34__1_);}
	.st5{display:none;fill:url(#_x35__1_);}
	.st6{display:none;fill:url(#_x36__1_);}
	.st7{display:none;fill:url(#_x37__1_);}
	.st8{display:none;fill:url(#_x38__1_);}
	.st9{fill:#333333;}
</style>
<path id="_x39_" class="st9" d="M600.1,280.4c0,6.6,0,13.2,0,19.7c-200,0-400,0-600,0c0-13.5,0-27,0-40.4c0.3,0,0.8-0.1,1,0.1
	c0.7,0.8,1.6,0.2,2.4,0.3c0.4,0,0.7,0,1.1,0.1c0.8,0.3,0.9,0.2,1.1-0.5c0.8,0,1.4-0.8,2.2-0.7c0.4,0,0.8-0.4,1.2-0.5
	c0.4-0.1,1,0.2,1.4-0.3c0-0.1,0.2-0.1,0.3,0c0.5,0.6,0.9,0.1,1.3-0.2c0.1-0.1,0.2-0.1,0.4-0.1c0.3,0,0.7,0.1,1,0.1
	c0-0.2,0.1-0.4,0.1-0.7c0.3,0.2,0.5,0.3,0.8,0.4c0.1,0,0.2,0,0.3,0c0.6-0.2,1.3-0.4,1.9-0.6c1.1-0.4,2.4-0.3,3.1-1.5
	c0.1-0.1,0.4-0.1,0.5-0.1c0.5,0.1,1,0.3,1.4,0.3c0.4,0.1,0.8,0,1.1,0c0.5,1.4-0.9,1.3-1.4,1.9c0.8-0.1,1.5-0.2,2.2-0.2
	c-0.1,0.4-0.2,0.7-0.2,1.1c-0.6,0.2-1.2,0.3-1.8,0.5c-0.1,0-0.3,0.1-0.3,0.2c-0.2,0.6-0.7,0.7-1.2,0.7c-0.2,0-0.3,0.1-0.5,0.1
	c0.5,0.1,1,0.1,1.5,0c0.5-0.1,0.9-0.4,1.4-0.5c0.5-0.1,1.1,0.1,1.5-0.2c1-0.7,2.2-0.8,3.2-1.3c1.1-0.5,2.3-0.8,3.5-1.3
	c0.1,0,0.1-0.1,0.2-0.1c-0.4-0.7-0.4-0.8,0.5-1c0,0.2,0.1,0.3,0.1,0.6c1-0.4,2-0.8,2.9-1.3c0.7-0.3,1.4-0.6,2-1
	c0.8-0.5,1.8-0.7,1.7-2c0-0.1,0-0.2,0.1-0.3c0.8-0.7,1.3-1.6,2.4-2c0.7-0.3,1.5-0.5,1.8-1.4c0,0,0.1,0,0.1-0.1
	c0.1,0.1,0.2,0.2,0.5,0.4c0.6-1,1.2-2,1.9-3c0,0.3,0.1,0.6,0.1,0.8c1-0.3,2-0.7,3-1c0.8-0.2,1.1-1.1,0.9-1.7c0-0.2-0.1-0.4-0.1-0.6
	c0-0.6,0.1-1.1,0.1-1.7c0-0.8,0.2-1.5,1-1.9c0.3-0.2,0.6-0.3,0.9-0.4c0.8-0.4,1.6-1,2.5-1.3c0.6-0.2,0.7-0.6,0.7-1.1
	c0-0.5,0-1,0.2-1.4c0.4-1.2,1-2.3,2.1-3c0.5-0.3,0.6-0.7,0.3-1.3c-0.2-0.3,0-0.8,0.1-1.2c0.1-0.2,0.4-0.4,0.5-0.7
	c0.2-0.6,0.4-1.3,0.6-1.9c0-0.2,0.1-0.4,0-0.5c-0.2-0.7,0.1-1.3,0.6-1.8c0.2-0.2,0.3-0.5,0.3-0.8c0.1-1.1,0.1-2.2,0.2-3.3
	c0-0.4,0.1-1,0.8-1c0.1,0,0.2-0.2,0.3-0.3c0.2-0.8,0.5-1.5,0.7-2.3c0.3-1.1,0.6-1.2,1.7-0.9c2.2-2.2,2.1-2.4,2.7-5.4
	c0.1-0.6,0.5-1.1,0.8-1.7c0.4-0.7,0.9-1.3,1.4-2c0.2-0.3,0.4-0.7,0.7-0.9c1-0.5,2-0.9,3-1.4c0.3-0.1,0.7-0.2,0.9-0.5
	c0.9-0.8,1.8-1.5,2.9-1.9c0.8-0.3,1.6-0.8,2.2-1.4c0.5-0.5,1-1,1.8-1.3c0.4-0.1,1-0.3,1.1-0.6c0.7-1.5,2-2,3.5-2.2
	c0.4-0.1,0.8-0.2,1.2-0.1c0.6,0.1,1.2,0.2,1.6,0.5c0.8,0.7,1.6,1.5,2.3,2.3c0.2,0.2,0.3,0.5,0.4,0.5c0.6,0.1,0.3,0.4,0.2,0.7
	c0.6-0.1,0.6,0.4,0.6,0.8c0,0.5,0,1,0,1.5c0,0.3,0.1,0.7,0.3,1c0.3,0.5,0.8,0.9,1.1,1.3c0.1,0.1,0.1,0.2,0.1,0.2
	c0.7,0.1,1.4,0.2,2.1,0.4c1,0.3,2,0.6,2.8,1.1c0.8,0.5,1.3,1.3,2,1.9c0.2,0.2,0.4,0.4,0.6,0.4c0.5,0.1,1,0.1,1.4,0.2
	c1.1,0.1,2.1,0.3,3.2,0.4c0.9,0,1.8,0.4,2.8,0.1c0.6-0.2,1.2-0.3,1.8-0.3c0.8,0,1.5,0,2.3,0.1c0.4,0,0.8,0.1,1.3,0.2
	c0.1-0.3,0.3-0.3,0.7,0c0.1,0.1,0.4,0,0.6-0.1c0.4-0.2,0.7-0.5,1.1-0.5c0.2,0,0.4,0.5,0.5,0.8c0,0.1,0,0.2,0.1,0.3
	c0.4-0.9,1-0.7,1.7-0.6c0.3,0,0.6,0.1,0.8,0c0.7-0.3,1.2-0.3,1.5,0.1c0.4,0,0.7,0,1,0.1c0.7,0.2,1.4,0.4,2.1,0.6
	c0.5,0.1,1.1-0.3,1.4,0.5c0,0.1,0.3,0.1,0.4,0.1c0.4,0.1,0.9,0.1,1.2,0.3c0.6,0.4,1.1,0.7,1.9,0.5c0.2,0,0.4,0.1,0.5,0.1
	c0.4,0.1,0.7,0.2,1.1,0.2c0.5,0.1,1-0.1,1.3,0.1c0.9,0.4,1.8,0.9,2.8,1c0.6,0.1,1.2,0.3,1.8,0.5c0.1,0,0.2,0.2,0.3,0.2
	c0.3,0.1,0.5,0.2,0.8,0.3c0.1,0,0.3-0.1,0.5-0.1c1.2,0.2,2.5,0.5,3.7,0.7c1,0.1,1.8,0.6,2.4,1.3c1,1,1.4,2.3,1.5,3.7
	c0,0.6-0.2,1.3,0.8,1.4c0.1,0,0.3,0.2,0.4,0.4c0.7,0.8,1.2,1.8,1.4,2.9c0.3,1.3,0.9,2.6,1.2,3.9c0.2,0.9,0.3,1.8,0.4,2.7
	c0.1,0,0.1-0.1,0.1-0.1c0.1,0,0.2,0,0.3,0c1.4,0.2,1.9,1.4,2.5,2.5c0.5,1.1,0.9,2.2,1.3,3.2c0.5,0,1.1-0.2,1.4,0
	c0.4,0.2,0.5,0.8,0.8,1.2c-0.1,0.1-0.2,0.2-0.3,0.3c0.5,0.2,1,0.4,1.5,0.6c0.3,0.1,0.6,0.2,0.9,0.4c0.8,0.4,1.7,0.4,2.3,1.2
	c0.2,0.2,0.4,0.4,0.6,0.6c0.6,0.4,1.1,0.9,1.7,1.3c0.7,0.4,1.4,1,2.3,0.9c0.5,0,0.9,0.4,1.6,0.6c0.2-0.2,0.4-0.6,0.7-1
	c0.2,0.2,0.3,0.6,0.5,0.6c0.6,0.1,0.3,0.4,0.2,0.6c0.2,0,0.4,0,0.6,0.1c0.7,0.6,0.9,0.6,1.8,0.1c0.2-0.1,0.4,0,0.6,0
	c0.4,0.1,0.9,0.3,1.3,0.5c0.1,0,0.2,0.1,0.4,0.1c0.2,0.1,0.4,0.1,0.6,0.2c0.2,0,0.4,0,0.5,0c0.4,0,0.8,0,1.1-0.2
	c0.8-0.4,1.6-0.2,2,0.6c0.7-0.7,1.6-0.5,2.5-0.6c0.9-0.1,1.9,0,2.9-0.2c0.4-0.1,0.8-0.6,1.2-0.8c0.3-0.2,0.5-0.4,0.8-0.5
	c0.5-0.2,1.1,0,1.6-0.6c0.1-0.1,0.6-0.1,0.9,0c1.2,0.6,1.1,0.6,1.9-0.3c0.4-0.4,0.8-0.4,1.1,0.1c0.2,0.4,0.8,0.3,1.1,0
	c0.1-0.2,0.3-0.3,0.5-0.5c0.4-0.3,0.7-0.7,1-1c0.4-0.5,0.5-1.3,1.4-1.4c0.6,0,1.2-0.2,1.8-0.2c0.4,0,0.9,0.1,1.1,0.3
	c0.6,0.7,1,0.9,1.9,0.8c0.2,0,0.5,0,0.5-0.2c0.3-0.6,0.5-0.3,0.7,0c0.1,0.2,0.3,0.5,0.4,0.7c0.5-0.1,1-0.3,1.5-0.4
	c0.1,0,0.2-0.3,0.2-0.4c0.1-0.5,0.1-1.1,0.2-1.6c0-0.2,0.1-0.6,0.2-0.7c0.5-0.3,1-0.5,1.6-0.6c1.3-0.5,1.8-1.3,1.5-2.6
	c-0.1-0.6,0.4-1.5,1-1.7c0.2-0.1,0.4-0.4,0.5-0.6c0.3-0.8,0.5-1.7,0.8-2.5c0.1-0.4,0.2-0.8,0.2-1.2c0-1.2-0.1-2.3-0.2-3.5
	c0-0.2,0.1-0.6,0.3-0.7c0.8-0.5,1.7-0.7,2.6-0.7c0.6,0,1.2,0,1.8-0.1c0.2,0,0.5-0.3,0.5-0.5c0.2-1.1,1-1.6,2-1.9
	c0.5-0.1,0.7-0.4,0.7-0.9c0.1-0.3,0.2-0.8,0.4-0.9c1.1-0.3,0.9-1.2,1.1-1.9c0.1-0.3,0.1-0.6,0.3-0.9c0.4-0.4,0.7-1.1,1.5-1.1
	c0.1,0,0.2-0.2,0.3-0.3c0.3-0.2,0.3-1.2,0.9-0.3c0.1-0.1,0.1-0.1,0.2-0.2c0.3-0.1,0.6-0.3,0.8-0.3c0.5,0,0.7-0.3,0.8-0.8
	c0.1-0.2,0.1-0.4,0.2-0.7c0.1-0.5,0.3-0.8,0.8-0.8c0.6-0.1,1.2-0.3,1.7-0.5c0.2-0.1,0.4-0.4,0.4-0.6c0-0.4-0.2-0.8-0.4-1.2
	c-0.2-0.4,0-0.6,0.3-0.7c0.5-0.2,1-0.4,1.6-0.6c0.6-0.2,0.8-0.7,0.6-1.1c-0.2-0.6,0-0.9,0.2-1.5c0.4-0.8,1.2-1.2,1.6-1.9
	c0.6,0.6,0.8,0.4,1.3-0.1c0.6-0.7,1.4-1.3,2.3-1.5c0.8-0.2,1.1-0.5,1-1.2c0-0.3-0.1-0.7-0.1-1c0.3-0.2,0.6-0.5,0.9-0.7
	c0.6-0.4,1-1,1.2-1.7c0-0.2,0.2-0.4,0.3-0.5c0.6-0.4,1.2-0.8,1.8-1.2c0.7-0.4,1.1-1.2,2.1-1.1c0,0.1,0.1,0.3,0.2,0.5
	c0.7-0.5,1.4-0.9,2-1.5c0.7-0.6,1-0.7,1.6,0c0.3,0.3,0.4,0.2,0.6-0.1c0.3-0.5,0.5-1.3,1.4-1.2c0.1,0,0.3-0.2,0.3-0.3
	c0.3-0.6,0.7-0.5,1.1-0.3c0.2,0.1,0.4,0.3,0.5,0.2c0.7-0.2,1.5-0.4,2.2-0.7c0.6-0.2,1.2-0.5,1.8-0.8c1.3-0.6,2.6-1.1,3.9-1.7
	c0.3-0.1,0.7-0.3,1.1-0.3c0.8,0.1,1.5,0.4,2.2,0.5c0.5,0.1,1.1,0.1,1.7,0.2c0.5,0.1,1,0.5,1.4,0.4c0.9-0.3,1.6,0,2.3,0.3
	c0.5,0.2,1.1,0.6,1.5-0.2c0.1-0.1,0.3-0.1,0.5-0.1c0.9-0.1,1.9-0.1,2.8-0.3c0.7-0.1,1.2,0.1,1.3,0.6c0.2,0.7,0.6,0.8,1.3,0.8
	c0.4,0,0.7,0.2,1.1,0.3c0.3,0.2,0.6,0.4,1,0.6c0.4,0.2,0.9,0.3,1.3,0.5c0.1,0,0.2,0.1,0.3,0.1c0.8-0.3,1.6-0.5,2.5-0.4
	c0.6,0.1,1.2,0.5,1.1,1.1c0,0.9-0.1,1.9-0.1,2.8c0,0.9,0,1.8,0.1,2.6c0.1,0,0.2,0,0.2,0c0.1-0.3,0.3-0.5,0.4-0.8
	c0.3-0.6,0.8-0.7,1.4-0.6c0.2,0.1,0.4,0.5,0.5,0.8c0.1,0.7,0,1.4,0.1,2.1c0.1,0.8-0.2,1.7,0.4,2.5c0.2,0.2,0.4,0.5,0.6,0.7
	c0.2-0.2,0.6-0.4,0.7-0.7c0.5-1.1,1.5-1.3,2.5-1.4c0.6,0,0.8-0.3,1-0.7c0.2-0.7,0.4-1.4,0.5-2.1c0-0.1,0.1-0.2,0.2-0.3
	c0.6-0.4,0.5-0.9,0.3-1.5c-0.1-0.3-0.1-0.8,0.1-1.1c0.4-0.4,0.9-0.8,1.5-1c0.5-0.3,1.1-0.6,1.6-0.6c0.5,0,0.6-0.1,0.9-0.4
	c0.7-0.8,1.5-1.5,2.7-1.7c0.4-0.1,0.7-0.4,1-0.7c0.3-0.3,0.4-0.8,0.6-1.1c-0.2-0.4-0.3-0.7-0.5-1.2c1-0.1,1.3-1.1,2.1-1.4
	c0.9-0.3,1.7-0.6,2.7-0.9c0.2,0.5,0.6,0.3,1,0c0.5-0.4,1.1-0.6,1.4-1.3c0.3-0.7,1-1.2,1.4-1.9c0.3-0.5,0.5-1,0.5-1.6
	c0-0.4,0-0.8,0.4-0.9c0.3-0.1,0.7,0,1,0c0.1,0,0.2-0.3,0.4-0.5c0.4-0.6,1-0.8,1.4-0.6c0.8,0.4,1,0.4,1.3-0.4c0.1,0,0.2,0,0.2,0.1
	c0.7,0.6,1.5,0.9,2.5,0.7c0.2-0.1,0.5,0,0.6,0.1c0.4,0.5,0.9,0.5,1.5,0.4c0.8,0,1.5-0.3,2.1-0.8c0.6-0.5,1.2-1,1.8-1.5
	c0.2,0,0.4,0,0.6,0c0,0.1,0.1,0.4,0.1,0.4c0.7,0.1,1.4,0.2,2.1,0.1c0.3,0,0.5-0.3,0.8-0.5c0.1,0,0.3,0,0.4,0
	c0.1,0.3,0.2,0.5,0.6,0.7c0.5,0.2,1,0.5,1.1,1.2c0.2,0.9,0.5,1.8,0.9,2.8c0.4-0.2,0.9-0.4,1.1-0.7c0.3-0.5,0.8-0.5,1.2-0.5
	c0.4,0,0.7,0.1,0.7,0.6c0,0.2-0.2,0.4-0.3,0.6c0.4,0,0.8,0.1,1.2,0c0.7-0.2,1.2,0.3,1.8,0.2c0.1,0,0.1,0.3,0.2,0.4
	c0.2,0.3,0.3,0.4,0.6,0.1c0.1-0.2,0.5-0.3,0.7-0.3c0.1,0,0.3,0.3,0.4,0.5c0.3,0.3,0.5,0.7,0.8,0.8c0.7,0.3,1.4,0.6,2.2,0.2
	c0,0,0.2,0,0.2,0c0.3,0.2,0.7,0.5,0.9,0.6c0.4-0.2,0.8-0.4,1.2-0.6c0.2-0.1,0.4-0.3,0.6-0.4c0.3-0.1,0.5-0.3,0.8-0.3
	c0.1,0,0.4,0.1,0.4,0.1c0.6-0.7,0.8,0.1,1.1,0.3c0.3,0.2,0.5,0.4,0.7,0.6c0.1,0.1,0.4,0.3,0.4,0.4c-0.2,0.4,0,0.6,0.2,1
	c0.3,0.4,0.3,1,0.5,1.5c0.1,0.2,0.3,0.5,0.6,0.6c0.8,0.3,1.3,0.8,1.6,1.6c0.5,0.2,1.1,0.4,1.7,0.7c0.3,0.9,0.5,1,1.6,0.7
	c0.1,0,0.3-0.1,0.4-0.1c0.5-0.1,0.7,0.2,0.8,0.6c0.2,0.7,0.3,0.7,0.9,0.3c0.4-0.3,0.7-0.7,1.3-0.4c0,0.3,0.1,0.6,0.1,0.9
	c0.1,0,0.2,0,0.3,0c0.1-0.4,0.2-0.7,0.3-1.1c0.3,0.3,0.8,0.4,0.8,0.7c0.1,0.6,0.4,0.6,0.9,0.6c1.1,0.1,2,0.7,2.8,1.3
	c0.3,0.2,0.7,0.2,1,0.3c0.3,0.1,0.6,0.1,0.8,0.2c0.9,0.4,1.8,0.8,2.7,1.2c0.3,0.1,0.6,0.2,0.8,0.4c0.3,0.3,0.4,0.5,0.7,0
	c0.1-0.1,0.5-0.1,0.6-0.1c0.2,0.8,0.9,0.7,1.4,0.9c0.5,0.1,1.2,0.1,1.5,0.4c1,1,2.1,1,3.4,0.5c0.2-0.1,0.8,0.1,1,0.3
	c0.2,0.4,0.5,0.3,0.9,0.4c0.8,0.1,1.7,0.1,2.3,0.9c0.6-0.8,1.3-0.3,2-0.3c0.9-0.1,1.2,0.7,1.7,1.1c-0.2,0.4-0.4,0.7-0.7,1
	c-0.3,0.3-0.1,0.5,0.2,0.6c0.6,0.2,1.2,0.3,1.8-0.1c0.2-0.1,0.7-0.3,0.8-0.2c0.2,0.2,0.2,0.6,0.3,0.9c0.1,0.4,0,1,0.3,1.2
	c0.5,0.4,0.4,0.7,0.3,1.1c-0.2,0.6-0.1,1,0.5,1.3c0.7,0.4,1.5,0.9,2.4,0.6c0.1,1.3,1.1,1.8,2,2.4c0.4,0.3,0.8,0.5,1.3,0.7
	c0.3,0.1,0.7,0.4,0.9,0.3c0.8-0.4,1.5,0,2.2,0.2c0.6,0.2,1.5,0,1.7,1c0,0.1,0.2,0.2,0.3,0.3c1.1,0.5,2.1,1,3.2,1.5
	c0.9,0.4,1.9,0.6,2.7,1.1c0.8,0.5,1.7,0.7,2.6,0.9c0.5,0.1,1.1,0.3,1.4,0.7c1.1,1.4,2.7,2,4.3,2.5c1.3,0.4,2.2,1.1,3.2,1.9
	c0.7,0.5,1.6,0.7,2.2,1.5c0,0,0.1,0,0.1,0c0.7-0.1,1.2,0.1,1.7,0.6c0.2,0.2,0.5,0.2,0.7,0.2c0.8,0.2,1.5,0.3,2.3,0.6
	c0.4,0.2,0.6,0.2,0.9-0.1c0.4-0.5,0.9-0.5,1.5-0.1c0.4,0.3,0.7,0.6,0.6,1.1c0,0.1,0.1,0.3,0.1,0.3c0.5,0.1,0.9,0.3,1.4,0.4
	c0.7,0.1,1.4,0.1,2.1,0.3c0.7,0.2,1.3,0.5,1.9,0.8c0.8,0.5,1.7,0.9,2.7,0.9c0.1,0,0.3,0.2,0.4,0.3c0.4,0.2,0.7,0.4,1.1,0.4
	c0.8,0,1.5-0.1,2.1-0.2c0.4-0.3,0.7-0.6,1-0.8c0.7-0.6,1.2-0.7,2-0.2c0.4,0.2,0.8,0.4,1.4,0.1c0.4-0.2,0.9-0.3,1.4,0
	c0.5,0.2,1.1,0.4,1.6,0.2c0.6-0.3,1.1-0.2,1.6,0c0.2,0.1,0.4,0.2,0.7,0.2c1.1,0.1,2.3-0.4,3.4,0.2c0.1,0.1,0.3,0,0.5,0
	c0.3,0,0.7-0.1,1,0c1.7,0.3,3.5,0.6,5.2,0.9c0.7,0.1,1.5,0.4,2.2,0.5c0.9,0.1,1.9,0.2,2.8,0.2c0.6,0,1.2-0.2,1.8-0.2
	c0.2,0,0.4,0.1,0.5,0.2c0.5,1.1,1.7,1.2,2.6,1.6c0.5,0.2,1,0.5,1.6,0c0.1-0.1,0.3-0.1,0.4,0c0.7,0.6,1.4,1.1,2.1,1.7c0,0,0,0,0,0.1
	c0.2,0.5,0.5,0.8,1.1,0.9c0.7,0.2,1.5-0.2,2.2,0.2c0.6,0.4,1.5-0.1,1.9,0.8c0,0,0.4-0.1,0.6-0.1c0.5-0.2,1.2,0.1,1.2,0.5
	c0,0.8,0.4,1.2,1.2,1.3c0.1,0,0.1,0.1,0.2,0.1c0.8,0.4,1.5,0.8,2.3,1.2c0.1,0,0.2,0,0.3,0c0.3,0.1,0.7,0.2,1.1,0.3
	c0.4-0.1,0.9-0.3,1.3-0.5c0.9-0.4,2.1,0,2.3,0.9c0.2,0.8,0.7,0.9,1.3,1.1c0.3,0.1,0.7,0.3,1,0.4c0.5,0.1,1.1,0.3,1.6,0.3
	c0.3,0.1,0.6,0,1,0c0.4,0,0.8,0.1,1.1,0.2c0.9,0.1,1.9,0.2,2.8,0.3c0.5,0.1,1.1,0.4,1.6,0.4c0.8,0,1.3,0.4,1.8,1
	c0.6,0.8,1.3,1.4,2.3,1.6c0.8,0.2,1.3,0.8,1.5,1.6c0.1,0.4,0.4,0.7,0.7,1c0.3,0.2,0.6,0.3,1,0.5c0.8,0.3,1.5,0.7,2,1.5
	c0.5,0.8,1.4,1.3,2.1,1.9c0.8,0.7,1.6,1.5,2.4,2.3c0.1,0.1,0.3,0,0.4,0.1c0.5,0.3,1.2,0.5,1.5,0.9c0.8,1.1,1.7,2,3.2,2.2
	c0.3,0,0.7,0.1,0.9,0.3c0.5,0.7,1.2,0.8,1.9,0.9c1.1,0.1,2.2,0,3,0.9c0,0,0.1,0.1,0.2,0.1c0.8,0,1.5,0,2.3,0c0.1,0,0.1,0,0.2-0.1
	c0.5-0.6,1-0.7,1.6-0.3c0.2,0.1,0.4,0.2,0.6,0.2c0.6,0.1,1.2,0,1.8,0.2c0.3,0.1,0.6,0.5,0.9,0.7c0.4,0.3,0.3,1,1,0.9
	c1.3-0.4,2.5,0.1,3.7,0.6c0.7,0.3,1.4,0.3,2.1,0.3c1,0,2,0.1,2.9,0.1c0.5,0,1,0,1.4-0.1c0.2,0,0.3-0.4,0.5-0.4
	c0.6,0,0.9-0.4,1.2-0.9c0.5-0.9,1.4-1.2,2.3-0.7c0.8,0.5,0.9,0.5,1.5-0.3c0.7,0.3,1.4,0.2,2.1-0.1c0.9-0.4,1.9-0.8,2.8-1.1
	c0.3-0.1,0.6,0,0.8-0.1c1.5-0.4,3-0.9,4.5-1.3c1-0.3,2-0.6,3-0.9c0.5-0.2,1.1-0.4,1.6-0.5c0.9-0.1,1.7,0.2,2.5,0.8
	c0.9,0.6,1.9,1.2,2.8,1.7c0.6,0.3,1,0.8,1.6,1.2c0.4,0.3,0.9,0.6,1.4,0.6c0.7,0.1,1.4-0.2,2.1,0.1c0.5,0.2,1.1,0.2,1.6,0.5
	c0.2,0.1,0.3,0.3,0.5,0.4c0.4,0.3,0.6,0.9,1.2,0.6c0,0,0,0,0.1,0c0,0.2,0.1,0.4,0.1,0.5c0.7,0.2,1.3,0.4,1.8,0.6
	c0.7,0.3,1.4,0.6,2.2,0.4c0.1,0,0.3,0,0.4,0.1c0.5,0.3,1,0.6,1.5,1c0.1,0.1,0.1,0.2,0.2,0.3c0.1,0.2,0.2,0.4,0.2,0.5
	c0.1,0.2,0.2,0.5,0.2,0.6c-0.3,0.6,0.1,0.5,0.4,0.6c0.3,0.1,0.6,0.1,0.9,0.2c0-0.2,0-0.6,0-0.9c0.1,0,0.2-0.1,0.2-0.1
	c0.3,0.6,0.5,1.2,0.7,1.8c1.1,0.2,2.2,0.5,3.2,0.7c0.1,0,0.2,0.2,0.4,0.3c0.4,0.2,0.7,0.6,1.1,0.7c1.3,0.2,1.8,0.6,2.1,1.8
	c0.8,0.1,1.6,0.2,2.2,0.9c0.1,0.1,0.6,0.3,0.7-0.2c0-0.1,0.1-0.2,0.2-0.2c0.2,0.4,0.3,0.8,0.6,1c0.3,0.2,0.8,0.1,1.2,0.1
	c0.1,0.4,0.1,0.8,0.3,1.1c0.4,0.6,1.3,0.5,1.7,1.2c0,0,0.2,0,0.3,0c0.5,0,1-0.1,1.4-0.1c0-0.2-0.1-0.3-0.1-0.5c0,0,0.2-0.1,0.3-0.1
	c0.1,0.1,0.2,0.2,0.3,0.4c0.1,0.4,0.5,0.8-0.1,1.1c-0.1,0,0,0.3,0,0.5c0.4-0.2,0.6-0.4,0.9-0.6c0.1,0.3,0.1,0.5,0.2,0.8
	c0.3,0,0.5,0,0.7,0c0.4,0,0.8,0,0.8,0.6c0,0.2,0.3,0.5,0.6,0.7c0.7,0.4,1.4,0.9,1.9,1.2c0.5-0.1,1-0.2,1.5-0.4
	c0.1,0.1,0.1,0.1,0.2,0.2c-0.1,0.2-0.3,0.3-0.4,0.5c-0.1,0.2-0.2,0.3-0.3,0.5c0.2,0,0.4,0.1,0.5,0.1c0.4-0.1,0.8-0.2,1.3-0.3
	c0,0.5,0,0.8,0,1.1C599.5,280.2,599.8,280.3,600.1,280.4z"/>
</svg>
