<?xml version="1.0" standalone="no"?>
<!DOCTYPE svg PUBLIC "-//W3C//DTD SVG 20010904//EN"
 "http://www.w3.org/TR/2001/REC-SVG-20010904/DTD/svg10.dtd">
<svg version="1.0" xmlns="http://www.w3.org/2000/svg"
 width="381.000000pt" height="381.000000pt" viewBox="0 0 381.000000 381.000000"
 preserveAspectRatio="xMidYMid meet">
<metadata>
Created by potrace 1.11, written by Peter Selinger 2001-2013
</metadata>
<g transform="translate(0.000000,381.000000) scale(0.100000,-0.100000)"
fill="#000000" stroke="none">
<path d="M1895 3791 c-4 -8 -9 -24 -11 -35 -2 -12 -10 -46 -19 -76 -9 -30 -18
-62 -19 -70 -2 -8 -11 -32 -20 -52 -9 -21 -16 -42 -16 -47 0 -6 38 -10 90 -10
100 0 101 1 74 65 -9 22 -20 53 -25 69 -4 17 -16 61 -26 100 -13 47 -22 65
-28 56z"/>
<path d="M1685 3298 c-165 -27 -357 -78 -425 -113 -14 -7 -69 -34 -122 -61
-54 -26 -98 -52 -98 -57 0 -6 -3 -8 -6 -4 -6 6 -19 -2 -134 -87 -89 -66 -279
-248 -280 -268 0 -4 -12 -20 -26 -35 -26 -28 -70 -91 -73 -105 0 -5 -9 -16
-19 -26 -26 -26 -145 -269 -137 -282 3 -5 2 -10 -3 -10 -7 0 -58 -147 -68
-195 -1 -5 -5 -23 -8 -40 -3 -16 -8 -41 -12 -55 -3 -14 -7 -44 -8 -66 -2 -23
-6 -46 -8 -50 -3 -5 -6 -48 -7 -95 l-1 -86 37 -6 c56 -9 67 -12 81 -20 8 -5
12 -2 13 10 1 10 2 50 4 88 2 39 6 90 10 115 3 25 9 61 11 80 3 19 10 53 16
75 5 22 12 48 13 57 2 9 9 27 16 40 7 13 11 23 9 23 -9 0 38 121 79 206 47 96
148 256 176 279 8 7 12 17 8 24 -3 6 -3 8 1 4 4 -4 27 15 51 42 23 26 62 65
86 86 67 60 69 61 61 69 -4 5 -2 6 3 2 6 -3 26 8 44 24 19 16 38 29 43 29 5 0
6 5 3 10 -4 6 -3 9 2 8 4 -1 48 21 96 50 78 46 204 110 232 118 6 1 46 13 90
27 128 40 300 72 368 69 9 0 17 5 18 11 0 7 2 21 4 31 2 11 5 36 7 55 l3 36
-50 1 c-28 0 -72 -4 -100 -8z"/>
<path d="M1935 3263 c11 -88 12 -91 47 -90 87 1 256 -30 377 -68 41 -13 78
-22 83 -19 4 3 8 0 8 -5 0 -6 5 -11 11 -11 16 0 203 -92 207 -102 2 -4 8 -8
13 -8 6 0 38 -19 72 -42 34 -24 66 -41 70 -40 5 1 6 -2 2 -8 -3 -5 -2 -10 3
-10 5 0 33 -22 63 -50 30 -27 60 -49 66 -50 7 0 12 -6 10 -12 -1 -7 4 -12 11
-10 8 1 11 -1 9 -5 -3 -5 22 -38 56 -74 34 -37 63 -69 64 -73 9 -22 57 -86 66
-86 6 0 7 -3 4 -6 -4 -4 2 -19 13 -34 27 -38 115 -217 130 -265 7 -22 17 -46
23 -52 5 -7 6 -13 3 -13 -4 0 -2 -10 5 -21 6 -12 12 -31 14 -43 1 -11 10 -55
18 -97 9 -41 20 -100 23 -130 9 -69 9 -275 0 -357 -4 -40 -3 -61 3 -58 5 4 12
2 16 -4 6 -10 -32 -29 -75 -36 l-25 -4 22 19 c15 13 25 35 28 67 11 86 13 277
4 344 -11 84 -18 131 -22 150 -2 8 -7 31 -11 50 -25 116 -135 380 -158 380 -5
0 -6 5 -3 10 4 6 -7 28 -24 49 -17 21 -31 42 -31 46 0 9 -59 84 -92 118 -15
15 -25 27 -22 27 4 0 1 7 -6 15 -7 8 -16 12 -21 9 -5 -3 -9 0 -9 7 0 17 -57
69 -66 61 -4 -4 -4 -2 -1 4 4 7 -8 23 -27 38 -19 14 -41 33 -50 42 -9 8 -16
13 -16 10 0 -3 -10 5 -22 17 -13 13 -63 47 -113 78 -77 46 -120 68 -260 131
-12 5 -27 10 -35 12 -8 2 -22 6 -30 9 -30 12 -176 50 -205 53 -51 5 -149 15
-177 18 l-28 3 6 -66 c3 -36 7 -67 8 -69 3 -2 83 -11 157 -16 20 -2 40 -5 45
-8 5 -3 33 -11 63 -18 29 -7 76 -21 105 -32 28 -11 63 -23 78 -28 46 -14 202
-95 226 -117 7 -7 17 -13 21 -13 4 0 25 -16 47 -35 21 -19 44 -35 49 -35 6 0
19 -11 29 -25 10 -13 23 -22 28 -19 4 3 7 2 6 -3 -1 -4 20 -31 48 -59 28 -27
66 -71 86 -97 19 -25 39 -43 43 -39 5 4 5 2 2 -4 -4 -7 0 -17 8 -24 8 -7 15
-19 15 -26 0 -8 4 -14 8 -14 5 0 19 -21 33 -46 13 -25 34 -64 46 -87 51 -97
116 -293 124 -372 2 -16 6 -34 10 -40 8 -12 4 -365 -5 -414 -11 -64 -58 -236
-67 -245 -5 -6 -9 -13 -9 -18 0 -7 9 -5 48 8 58 22 222 22 222 1 0 -5 6 -7 14
-4 7 3 18 1 24 -5 12 -12 20 0 27 39 2 10 4 20 6 23 1 3 3 10 4 15 2 6 4 12 5
15 7 19 19 81 25 130 12 98 15 140 14 230 0 14 0 54 0 90 0 36 -2 79 -4 95 -3
17 -7 53 -10 80 -8 86 -72 325 -87 325 -5 0 -7 4 -4 9 11 18 -121 299 -146
309 -4 2 -8 10 -8 18 0 8 -7 17 -15 20 -8 4 -13 9 -11 13 5 8 -79 118 -132
174 -73 76 -141 142 -172 167 -17 14 -43 35 -57 47 -14 12 -38 27 -52 35 -14
7 -30 18 -36 24 -5 6 -26 20 -45 30 -19 11 -38 24 -42 29 -5 7 -8 7 -8 0 0 -6
-3 -6 -8 1 -9 12 -112 67 -112 58 0 -3 -6 1 -13 8 -25 24 -304 111 -399 124
-18 3 -44 7 -58 10 -14 3 -65 8 -113 10 l-88 4 6 -47z"/>
<path d="M1879 3284 c-1 -22 -6 -65 -13 -114 -4 -32 -7 -59 -22 -195 -5 -46
-11 -105 -18 -185 -3 -30 -8 -82 -11 -115 -4 -33 -8 -80 -10 -105 -3 -46 -12
-145 -21 -235 -4 -47 -8 -95 -19 -227 -5 -60 -11 -135 -20 -236 -2 -31 -7 -86
-11 -122 -3 -36 -7 -87 -9 -115 -4 -64 -18 -205 -30 -290 -2 -16 -6 -50 -9
-75 -3 -25 -8 -56 -11 -70 -3 -14 -8 -41 -11 -60 -2 -19 -8 -48 -11 -65 -3
-16 -8 -39 -10 -50 -17 -97 -28 -135 -40 -135 -7 0 -13 5 -13 11 0 5 -4 8 -9
5 -5 -4 -11 -1 -13 6 -6 16 -111 15 -116 -1 -2 -6 -8 -9 -13 -5 -5 3 -9 0 -9
-6 0 -6 -4 -8 -10 -5 -5 3 -10 2 -10 -4 0 -5 -11 -22 -24 -36 -24 -25 -26 -26
-53 -12 -60 33 -98 38 -175 23 -22 -4 -38 -3 -38 2 0 13 26 33 33 26 3 -3 12
-2 19 2 7 5 24 8 38 9 14 0 24 5 23 10 -1 6 3 15 7 20 24 28 32 154 14 208 -7
20 -10 37 -7 37 3 0 -1 8 -10 18 -10 10 -14 22 -10 25 3 4 1 7 -6 7 -7 0 -9 5
-6 10 3 6 1 10 -5 10 -6 0 -9 4 -6 9 3 5 -5 17 -19 27 -13 10 -22 21 -19 26 3
4 1 8 -3 8 -5 0 -19 10 -33 23 -32 29 -80 59 -80 51 0 -4 -8 0 -18 9 -10 10
-22 14 -25 10 -4 -3 -7 -2 -7 3 0 5 -19 11 -43 13 -23 2 -53 4 -67 5 -14 2
-49 -3 -78 -9 -58 -14 -55 -13 -77 -22 -21 -7 -33 6 -16 16 10 7 12 23 6 72
-10 83 -10 271 0 329 4 25 8 56 10 70 1 14 5 32 7 40 3 8 11 32 17 52 7 20 14
45 16 55 9 46 80 194 134 278 14 22 24 44 23 48 -1 5 2 6 8 2 5 -3 10 -2 10 3
0 6 15 27 34 48 19 21 32 42 29 47 -2 4 1 6 9 5 7 -2 12 4 10 12 -2 8 -1 12 3
8 10 -9 45 24 38 35 -3 6 -1 7 5 3 6 -3 20 6 31 20 12 15 21 23 21 18 0 -5 6
-2 13 6 16 20 99 79 162 115 28 15 52 31 55 34 3 3 14 8 25 9 11 2 22 7 25 11
3 4 14 10 25 14 11 3 52 18 90 32 39 15 81 29 95 31 156 26 165 29 166 49 1
11 4 42 7 68 l5 48 -41 -6 c-97 -14 -115 -17 -176 -31 -73 -17 -248 -84 -301
-116 -19 -11 -55 -32 -80 -46 -25 -14 -51 -31 -58 -39 -7 -7 -18 -13 -23 -13
-6 0 -7 -5 -3 -12 4 -6 3 -8 -3 -5 -20 12 -248 -208 -236 -226 3 -6 1 -7 -5
-3 -6 3 -13 -3 -17 -14 -3 -11 -11 -20 -16 -20 -6 0 -7 -4 -4 -10 3 -5 2 -10
-3 -10 -12 0 -65 -80 -65 -97 0 -7 -4 -13 -8 -13 -23 0 -139 -297 -155 -397
-3 -21 -8 -58 -12 -83 -9 -56 -9 -310 0 -370 4 -25 11 -67 17 -93 11 -46 8
-67 -8 -67 -7 0 -24 67 -38 150 -15 90 -8 370 11 460 11 47 19 93 20 103 0 9
3 17 7 17 4 0 10 15 14 33 4 17 8 34 9 37 1 3 4 10 7 15 9 14 29 78 28 89 0 5
4 12 9 15 12 8 57 93 54 104 -1 4 1 7 6 7 4 0 18 20 32 45 14 25 28 45 33 45
4 0 6 4 2 9 -3 6 4 15 16 21 11 7 19 14 16 16 -6 7 43 62 133 152 79 78 185
157 285 213 33 18 63 38 67 43 4 6 8 8 8 3 0 -8 71 19 80 31 3 4 10 7 15 8 31
2 75 18 75 26 0 5 4 7 9 4 5 -4 22 -1 38 5 15 7 35 13 43 14 8 1 40 7 70 14
46 9 85 15 145 20 6 1 11 20 12 44 1 23 5 53 8 66 l6 24 -73 -6 c-86 -8 -178
-24 -238 -43 -3 -1 -20 -5 -37 -9 -18 -4 -33 -12 -33 -17 0 -5 -4 -6 -10 -3
-5 3 -16 3 -22 -2 -7 -4 -18 -8 -23 -9 -14 -2 -93 -38 -170 -76 -61 -31 -189
-112 -213 -135 -8 -7 -22 -18 -33 -24 -11 -5 -17 -14 -14 -20 4 -5 2 -8 -3 -7
-16 5 -125 -97 -197 -186 -38 -47 -70 -89 -70 -93 0 -4 -10 -18 -22 -31 -13
-14 -20 -28 -17 -33 3 -5 0 -9 -5 -9 -22 0 -168 -321 -156 -341 3 -4 1 -10 -5
-14 -6 -4 -8 -11 -5 -16 4 -5 2 -9 -3 -9 -7 0 -33 -106 -37 -155 -1 -5 -5 -33
-9 -61 -11 -72 -17 -206 -10 -227 3 -9 9 -15 13 -13 4 3 8 -1 8 -9 0 -20 -20
-19 -48 3 -13 11 -31 19 -39 20 -8 0 -24 3 -35 5 -66 16 -65 17 -59 -70 7
-117 13 -158 30 -238 3 -16 7 -34 8 -40 1 -5 5 -16 9 -22 5 -7 5 -17 2 -23 -3
-5 -1 -10 6 -10 7 0 10 -3 6 -6 -3 -3 3 -30 13 -59 10 -29 16 -56 13 -59 -4
-3 -1 -6 6 -6 7 0 10 -4 6 -9 -3 -5 -1 -12 5 -16 5 -3 10 -15 10 -26 0 -10 5
-19 12 -19 6 0 8 -3 5 -6 -3 -4 -1 -16 5 -28 7 -11 13 -23 13 -26 3 -18 60
-120 67 -120 5 0 7 -4 4 -9 -3 -5 3 -20 14 -34 11 -14 20 -30 20 -37 0 -6 5
-8 10 -5 6 3 10 -3 10 -15 0 -11 7 -23 15 -26 8 -4 13 -10 10 -15 -3 -4 4 -13
15 -19 11 -6 20 -17 20 -25 0 -7 12 -23 28 -35 15 -12 20 -18 12 -14 -8 4 9
-16 38 -45 29 -28 49 -51 46 -51 -4 0 3 -9 16 -20 13 -11 27 -20 32 -20 5 0 6
-4 3 -10 -3 -5 -2 -10 3 -10 5 0 28 -19 52 -42 24 -24 40 -36 36 -28 -4 8 2 3
14 -12 12 -16 26 -28 32 -28 6 0 17 -8 25 -17 10 -12 12 -13 8 -3 -6 13 -5 13
7 0 28 -30 71 -65 64 -50 -5 9 -2 8 7 -2 8 -10 17 -15 20 -11 4 3 7 1 7 -6 0
-7 4 -10 9 -7 5 3 11 -1 15 -9 3 -8 15 -15 26 -15 11 0 20 -4 20 -10 0 -5 7
-10 15 -10 8 0 15 -5 15 -10 0 -6 3 -9 8 -9 24 4 42 -2 36 -13 -5 -8 -2 -9 9
-5 10 3 17 2 17 -4 0 -6 5 -7 10 -4 6 3 10 2 10 -3 0 -9 47 -27 63 -24 4 1 7
-3 7 -10 0 -6 3 -9 6 -5 3 3 25 -3 49 -13 24 -10 46 -16 49 -13 3 4 6 2 6 -4
0 -5 6 -10 13 -11 24 -3 100 -19 105 -22 1 -2 10 -3 20 -5 9 -1 24 -5 33 -9 9
-4 20 -6 25 -5 5 1 11 0 14 -1 3 -2 19 -4 35 -6 17 -1 57 -6 90 -9 150 -17
375 -4 510 29 11 2 21 5 23 6 1 2 11 4 22 5 11 1 21 3 23 5 1 1 11 3 21 5 17
3 58 14 76 20 3 1 19 8 35 15 17 7 36 14 43 16 29 6 102 40 102 47 0 5 5 5 10
2 6 -3 10 -1 10 5 0 6 5 8 10 5 6 -3 10 -1 10 5 0 6 5 8 10 5 6 -3 10 -1 10 4
0 6 3 10 8 9 11 -2 45 13 65 30 9 8 17 12 17 8 0 -4 7 -1 15 6 32 29 43 37 47
32 3 -2 17 7 33 22 15 14 45 36 66 50 22 13 39 29 39 34 0 6 7 10 16 10 8 0
12 5 9 10 -3 6 -1 10 4 10 6 0 29 17 51 39 22 21 41 36 43 34 2 -2 10 4 18 14
12 15 12 16 -1 8 -8 -5 4 9 28 31 23 22 39 43 35 47 -3 4 1 7 11 7 9 0 14 5
11 10 -3 6 -2 10 4 10 5 0 13 9 16 20 4 11 10 18 15 15 5 -3 11 3 15 14 3 11
19 34 35 52 16 18 26 37 24 41 -3 4 -1 8 4 8 8 0 29 36 30 53 0 5 9 15 19 23
10 7 14 14 10 14 -5 0 -1 7 7 16 9 8 14 20 11 25 -4 5 -1 9 5 9 6 0 9 4 6 9
-4 5 -2 11 2 13 10 4 77 159 88 202 5 21 4 27 -5 22 -6 -4 -11 -2 -11 4 0 7
-6 10 -14 7 -8 -3 -17 -3 -20 1 -19 18 -149 20 -196 2 -3 -1 -9 -3 -15 -4 -5
0 -25 -7 -43 -15 -18 -7 -35 -11 -38 -9 -2 3 12 53 32 113 19 59 36 122 37
141 1 19 4 34 7 34 3 0 6 8 6 18 1 9 4 46 9 82 8 71 8 232 0 295 -14 114 -62
295 -77 295 -5 0 -6 5 -3 11 8 12 -99 233 -126 260 -11 11 -16 19 -13 19 3 0
-16 28 -43 61 -238 304 -555 479 -930 514 -39 4 -53 2 -54 -7 -3 -34 6 -118
13 -123 2 -1 46 -7 98 -13 128 -16 332 -87 413 -144 15 -11 27 -16 27 -11 0 4
4 3 8 -2 10 -14 82 -67 82 -61 0 4 8 -2 18 -11 53 -51 98 -88 104 -86 5 2 8
-2 8 -7 0 -6 18 -30 40 -53 63 -67 126 -156 167 -237 21 -41 43 -78 48 -82 6
-4 7 -8 3 -8 -3 0 3 -24 14 -52 24 -63 54 -178 64 -245 11 -75 9 -280 -4 -364
-16 -106 -65 -259 -113 -351 -8 -14 -2 -17 36 -18 73 -2 76 -2 70 -17 -3 -8
-5 -16 -5 -17 0 -2 -17 0 -38 4 -45 8 -106 4 -146 -10 -36 -12 -56 -13 -56 -1
0 5 22 17 49 26 46 15 50 20 79 83 47 102 76 190 88 272 2 14 8 50 13 80 9 56
7 262 -4 315 -3 17 -10 55 -16 85 -22 111 -93 271 -170 385 -58 88 -178 217
-192 208 -5 -3 -7 -1 -4 4 8 12 -17 36 -26 26 -4 -3 -7 0 -7 8 0 8 -12 22 -28
31 -102 66 -135 85 -202 118 -116 58 -224 89 -365 105 l-52 7 3 -39 c9 -106 2
-96 84 -108 115 -17 342 -107 414 -165 132 -106 237 -216 276 -290 7 -14 16
-27 19 -30 4 -3 23 -39 43 -80 122 -249 133 -565 28 -821 -31 -74 -74 -156
-98 -181 -8 -10 -11 -18 -6 -18 5 0 5 -4 -1 -8 -5 -4 -28 -29 -50 -57 -22 -27
-53 -62 -69 -77 -24 -23 -26 -29 -12 -34 27 -11 18 -27 -11 -20 -41 10 -85 17
-113 20 -39 3 -131 -18 -177 -42 -47 -24 -57 -27 -48 -12 3 6 1 10 -4 10 -6 0
-11 7 -11 15 0 8 -6 15 -13 15 -7 0 -24 10 -37 23 -14 12 -28 21 -32 19 -5 -1
-8 2 -8 8 0 5 -5 10 -11 10 -12 0 -39 25 -39 35 0 4 7 4 16 1 12 -4 14 -1 9
13 -8 25 -16 60 -20 91 -2 14 -6 41 -9 60 -3 19 -8 54 -10 78 -3 23 -8 61 -12
85 -6 47 -11 96 -18 205 -3 40 -8 103 -12 140 -3 37 -7 83 -9 102 -1 19 -6 59
-9 88 -4 29 -9 76 -12 105 -2 28 -6 70 -9 92 -2 22 -7 67 -10 100 -3 33 -7 76
-10 95 -5 42 -15 150 -29 295 -9 95 -16 157 -21 195 -5 35 -15 126 -20 190 -1
19 -6 64 -10 100 -4 36 -9 81 -10 100 -13 152 -23 214 -26 164z"/>
<path d="M1685 2793 c-38 -8 -76 -15 -82 -15 -7 -1 -13 -5 -13 -10 0 -5 -4 -6
-10 -3 -21 13 -315 -125 -350 -164 -3 -4 -23 -20 -45 -36 -102 -76 -256 -257
-296 -350 -8 -16 -16 -32 -19 -35 -14 -13 -50 -102 -45 -111 4 -5 2 -9 -3 -9
-5 0 -12 -10 -15 -22 -3 -13 -15 -59 -27 -103 -11 -44 -23 -109 -27 -145 -7
-68 -7 -250 1 -285 2 -11 5 -30 5 -42 1 -19 4 -21 31 -13 37 11 32 10 76 10
31 0 35 3 29 18 -4 9 -9 78 -10 152 -3 129 4 195 34 310 7 25 13 51 13 58 1 6
6 12 11 12 6 0 8 3 5 6 -7 6 66 159 93 192 10 13 16 29 12 35 -3 6 -1 7 5 3 7
-4 12 -3 12 1 0 13 46 68 109 133 30 30 54 58 53 63 -1 4 1 6 5 5 5 -2 34 16
65 40 31 23 59 42 62 42 2 0 31 15 64 34 33 19 63 32 66 28 3 -3 6 0 6 7 0 7
5 9 10 6 6 -3 10 -1 10 5 0 6 4 9 8 6 4 -2 39 6 77 18 39 13 91 26 118 30 44
7 47 9 48 39 1 18 3 49 5 70 4 42 8 41 -91 20z"/>
</g>
</svg>
